# xmcd CD database file
#
# Track frame offsets:
#	150
#	25842
#	52217
#	81336
#	99574
#	125127
#	147002
#	173203
#
# Disc length: 2687 seconds
#
# Revision: 0
# Processed by: cddbd v1.5.2PL0 Copyright (c) Steve Scherf et al.
# Submitted via: CDex 1.78
#
DISCID=6f0a7d08
DTITLE=Kavita Seth - Khuda Wohi Hai - Sufi Rock Album
DYEAR=2011
DGENRE=Qawwali
TTITLE0=Khuda Wohi Hai
TTITLE1=Koi Samjhe Na
TTITLE2=Chhap Tilak
TTITLE3=Aaja More Raja
TTITLE4=Yaar Mera
TTITLE5=Ishq Rab Mein
TTITLE6=Damadum
TTITLE7=Sanam
EXTD=YEAR: 2011
EXTT0=
EXTT1=
EXTT2=
EXTT3=
EXTT4=
EXTT5=
EXTT6=
EXTT7=
PLAYORDER=
